<svg width="16" height="16" viewBox="0 0 16 16" fill="none" xmlns="http://www.w3.org/2000/svg">
<path fill-rule="evenodd" clip-rule="evenodd" d="M15.0711 0.928917C15.8521 1.70997 15.8521 2.9763 15.0711 3.75734L10.8284 7.99998L15.0711 12.2426C15.8521 13.0237 15.8521 14.29 15.0711 15.0711C14.29 15.8521 13.0237 15.8521 12.2426 15.0711L8 10.8284L3.75736 15.0711C2.97631 15.8521 1.70998 15.8521 0.928932 15.0711C0.147884 14.29 0.147883 13.0237 0.928932 12.2426L5.17157 7.99998L0.928932 3.75734C0.147884 2.9763 0.147884 1.70997 0.928932 0.928917C1.70998 0.147868 2.97631 0.147868 3.75736 0.928917L8 5.17156L12.2426 0.928917C13.0237 0.147868 14.29 0.147868 15.0711 0.928917Z" fill="black"/>
</svg>
