<svg width="17" height="16" viewBox="0 0 17 16" fill="none" xmlns="http://www.w3.org/2000/svg">
<path fill-rule="evenodd" clip-rule="evenodd" d="M0 2C0 0.895431 0.895431 0 2 0H15C16.1046 0 17 0.895431 17 2C17 3.10457 16.1046 4 15 4H2C0.895431 4 0 3.10457 0 2Z" fill="#c8cbda"/>
<path fill-rule="evenodd" clip-rule="evenodd" d="M0 8C0 6.89543 0.895431 6 2 6H15C16.1046 6 17 6.89543 17 8C17 9.10457 16.1046 10 15 10H2C0.895431 10 0 9.10457 0 8Z" fill="#c8cbda"/>
<path fill-rule="evenodd" clip-rule="evenodd" d="M0 14C0 12.8954 0.895431 12 2 12H15C16.1046 12 17 12.8954 17 14C17 15.1046 16.1046 16 15 16H2C0.895431 16 0 15.1046 0 14Z" fill="#c8cbda"/>
</svg>
